<svg id="Border" xmlns="http://www.w3.org/2000/svg" width="291" height="46" viewBox="0 0 291 46">
  <g id="Caminho_218" data-name="Caminho 218" fill="#eee">
    <path d="M 287 45.5 L 4 45.5 C 2.070107221603394 45.5 0.5 43.92989349365234 0.5 42 L 0.5 4 C 0.5 2.070107221603394 2.070107221603394 0.5 4 0.5 L 287 0.5 C 288.9299011230469 0.5 290.5 2.070107221603394 290.5 4 L 290.5 42 C 290.5 43.92989349365234 288.9299011230469 45.5 287 45.5 Z" stroke="none"/>
    <path d="M 4 1 C 2.345794677734375 1 1 2.345806121826172 1 4 L 1 42 C 1 43.65419387817383 2.345794677734375 45 4 45 L 287 45 C 288.6542053222656 45 290 43.65419387817383 290 42 L 290 4 C 290 2.345806121826172 288.6542053222656 1 287 1 L 4 1 M 4 0 L 287 0 C 289.2091064453125 0 291 1.790847778320312 291 4 L 291 42 C 291 44.20915222167969 289.2091064453125 46 287 46 L 4 46 C 1.79083251953125 46 0 44.20915222167969 0 42 L 0 4 C 0 1.790847778320312 1.79083251953125 0 4 0 Z" stroke="none" fill="#707070"/>
  </g>
</svg>
