<svg id="cadUsuario" xmlns="http://www.w3.org/2000/svg" width="94" height="83.125" viewBox="0 0 94 83.125">
  <path id="person_add_FILL0_wght400_GRAD0_opsz24" d="M109.545-756.364v-13.091H97.273v-8.727h12.273v-13.091h8.182v13.091H130v8.727H117.727v13.091Zm-36.818-8.727a15.281,15.281,0,0,1-11.557-5.127,17.385,17.385,0,0,1-4.807-12.327,17.385,17.385,0,0,1,4.807-12.327A15.281,15.281,0,0,1,72.727-800a15.281,15.281,0,0,1,11.557,5.127,17.385,17.385,0,0,1,4.807,12.327,17.385,17.385,0,0,1-4.807,12.327A15.281,15.281,0,0,1,72.727-765.091ZM40-730.182V-742.4a13.426,13.426,0,0,1,1.79-6.818,12.279,12.279,0,0,1,4.756-4.745,58.371,58.371,0,0,1,12.886-5.073,52.946,52.946,0,0,1,13.3-1.691,52.946,52.946,0,0,1,13.3,1.691,58.371,58.371,0,0,1,12.886,5.073,12.279,12.279,0,0,1,4.756,4.745,13.426,13.426,0,0,1,1.79,6.818v12.218Zm8.182-8.727H97.273V-742.4a4.31,4.31,0,0,0-.563-2.182,4.11,4.11,0,0,0-1.483-1.527,51.264,51.264,0,0,0-11.148-4.418A44.646,44.646,0,0,0,72.727-752a44.646,44.646,0,0,0-11.352,1.473,51.264,51.264,0,0,0-11.148,4.418,4.11,4.11,0,0,0-1.483,1.527,4.31,4.31,0,0,0-.563,2.182Zm24.545-34.909a7.641,7.641,0,0,0,5.778-2.564,8.693,8.693,0,0,0,2.4-6.164,8.693,8.693,0,0,0-2.4-6.164,7.641,7.641,0,0,0-5.778-2.564,7.641,7.641,0,0,0-5.778,2.564,8.693,8.693,0,0,0-2.4,6.164,8.693,8.693,0,0,0,2.4,6.164A7.641,7.641,0,0,0,72.727-773.818ZM72.727-782.545ZM72.727-738.909Z" transform="translate(-37.5 800)" fill="#196467"/>
  <text id="Cadastro_Usuário" data-name="Cadastro Usuário" transform="translate(0 80.125)" fill="#00b3a6" font-size="12" font-family="Roboto-Bold, Roboto" font-weight="700"><tspan x="0" y="0">Cadastro Usuário</tspan></text>
</svg>
