<svg id="Componente_219_1" data-name="Componente 219 – 1" xmlns="http://www.w3.org/2000/svg" width="19" height="19" viewBox="0 0 19 19">
  <path id="Caminho_215" data-name="Caminho 215" d="M6.7,17.2a1.9,1.9,0,1,0,1.9,1.9A1.9,1.9,0,0,0,6.7,17.2ZM1,2V3.9H2.9l3.42,7.211L5.037,13.438a1.837,1.837,0,0,0-.237.912,1.906,1.906,0,0,0,1.9,1.9H18.1v-1.9H7.1a.235.235,0,0,1-.237-.238L6.89,14l.855-1.549h7.077a1.891,1.891,0,0,0,1.662-.978l3.4-6.166A.928.928,0,0,0,20,4.85a.953.953,0,0,0-.95-.95H5L4.107,2H1ZM16.2,17.2a1.9,1.9,0,1,0,1.9,1.9A1.9,1.9,0,0,0,16.2,17.2Z" transform="translate(-1 -2)" fill="#fff"/>
</svg>
