<svg id="Editar" xmlns="http://www.w3.org/2000/svg" width="19" height="19" viewBox="0 0 19 19">
  <path id="edit_FILL0_wght400_GRAD0_opsz24" d="M122.111-823.111h1.5l10.318-10.318-1.5-1.5-10.318,10.318ZM120-821v-4.486l13.933-13.907a2.37,2.37,0,0,1,.7-.449,2.083,2.083,0,0,1,.8-.158,2.182,2.182,0,0,1,.818.158,1.854,1.854,0,0,1,.686.475l1.451,1.478a1.725,1.725,0,0,1,.462.686,2.286,2.286,0,0,1,.145.792,2.25,2.25,0,0,1-.145.8,1.977,1.977,0,0,1-.462.7L124.486-821Zm16.889-15.411-1.478-1.478Zm-3.721,2.243-.739-.765,1.5,1.5Z" transform="translate(-120 840)" fill="#1b15d8"/>
</svg>
