<svg id="Editusuario" xmlns="http://www.w3.org/2000/svg" width="98" height="13.091" viewBox="0 0 98 13.091">
  <text id="EDITAR_USUÁRIO" data-name="EDITAR USUÁRIO" transform="translate(19 10)" fill="#bbb" font-size="10" font-family="Roboto-Bold, Roboto" font-weight="700"><tspan x="0" y="0">EDITAR USUÁRIO</tspan></text>
  <path id="person_add_FILL0_wght400_GRAD0_opsz24" d="M46.545-793.454a3.151,3.151,0,0,1-2.311-.961,3.151,3.151,0,0,1-.961-2.311,3.152,3.152,0,0,1,.961-2.311A3.152,3.152,0,0,1,46.545-800a3.152,3.152,0,0,1,2.311.961,3.152,3.152,0,0,1,.961,2.311,3.151,3.151,0,0,1-.961,2.311A3.151,3.151,0,0,1,46.545-793.454ZM40-786.909V-789.2a2.4,2.4,0,0,1,.358-1.279,2.385,2.385,0,0,1,.951-.89,12.144,12.144,0,0,1,2.577-.951,11.254,11.254,0,0,1,2.659-.317,11.254,11.254,0,0,1,2.659.317,12.144,12.144,0,0,1,2.577.951,2.385,2.385,0,0,1,.951.89,2.4,2.4,0,0,1,.358,1.279v2.291Zm1.636-1.636h9.818v-.655a.769.769,0,0,0-.112-.409.8.8,0,0,0-.3-.286,10.669,10.669,0,0,0-2.23-.828,9.489,9.489,0,0,0-2.27-.276,9.489,9.489,0,0,0-2.27.276,10.669,10.669,0,0,0-2.23.828.8.8,0,0,0-.3.286.769.769,0,0,0-.112.409Zm4.909-6.545a1.576,1.576,0,0,0,1.156-.481,1.576,1.576,0,0,0,.481-1.156,1.576,1.576,0,0,0-.481-1.156,1.576,1.576,0,0,0-1.156-.481,1.576,1.576,0,0,0-1.156.481,1.576,1.576,0,0,0-.481,1.156,1.576,1.576,0,0,0,.481,1.156A1.576,1.576,0,0,0,46.545-795.091ZM46.545-796.727ZM46.545-788.545Z" transform="translate(-40 800)" fill="#bbb"/>
</svg>
