<svg id="Excluir" xmlns="http://www.w3.org/2000/svg" width="18" height="20.25" viewBox="0 0 18 20.25">
  <path id="delete_forever_FILL0_wght400_GRAD0_opsz24" d="M166.075-824.812,169-827.737l2.925,2.925,1.575-1.575-2.925-2.925,2.925-2.925-1.575-1.575L169-830.888l-2.925-2.925-1.575,1.575,2.925,2.925-2.925,2.925Zm-2.7,5.063a2.167,2.167,0,0,1-1.589-.661,2.167,2.167,0,0,1-.661-1.589v-14.625H160v-2.25h5.625V-840h6.75v1.125H178v2.25h-1.125V-822a2.167,2.167,0,0,1-.661,1.589,2.167,2.167,0,0,1-1.589.661Zm11.25-16.875h-11.25V-822h11.25Zm-11.25,0v0Z" transform="translate(-160 840)" fill="#ff0013"/>
</svg>
