<svg id="sair" xmlns="http://www.w3.org/2000/svg" width="21" height="22.167" viewBox="0 0 21 22.167">
  <path id="mode_off_on_FILL0_wght400_GRAD0_opsz24" d="M130.5-868.333a1.129,1.129,0,0,1-.831-.335,1.129,1.129,0,0,1-.335-.831v-9.333a1.129,1.129,0,0,1,.335-.831A1.129,1.129,0,0,1,130.5-880a1.129,1.129,0,0,1,.831.335,1.129,1.129,0,0,1,.335.831v9.333a1.129,1.129,0,0,1-.335.831A1.129,1.129,0,0,1,130.5-868.333Zm0,10.5a10.158,10.158,0,0,1-4.1-.831,10.673,10.673,0,0,1-3.325-2.246,10.671,10.671,0,0,1-2.246-3.325,10.158,10.158,0,0,1-.831-4.1,10.448,10.448,0,0,1,.583-3.456,10.46,10.46,0,0,1,1.692-3.077.956.956,0,0,1,.817-.394,1.257,1.257,0,0,1,.875.394.978.978,0,0,1,.292.787,1.662,1.662,0,0,1-.321.875,7.878,7.878,0,0,0-1.2,2.3,8.24,8.24,0,0,0-.408,2.567,7.879,7.879,0,0,0,2.377,5.79,7.879,7.879,0,0,0,5.79,2.377,7.879,7.879,0,0,0,5.79-2.377,7.879,7.879,0,0,0,2.377-5.79,8.757,8.757,0,0,0-.394-2.61,6.951,6.951,0,0,0-1.24-2.319,1.5,1.5,0,0,1-.321-.831.96.96,0,0,1,.292-.773,1.205,1.205,0,0,1,.846-.365.982.982,0,0,1,.817.365A10.419,10.419,0,0,1,140.4-871.8a10.178,10.178,0,0,1,.6,3.471,10.158,10.158,0,0,1-.831,4.1,10.671,10.671,0,0,1-2.246,3.325,10.673,10.673,0,0,1-3.325,2.246A10.158,10.158,0,0,1,130.5-857.833Z" transform="translate(-120 880)" fill="#fff"/>
</svg>
