<svg id="Componente_217_1" data-name="Componente 217 – 1" xmlns="http://www.w3.org/2000/svg" width="17.843" height="15.338" viewBox="0 0 17.843 15.338">
  <path id="Caminho_199" data-name="Caminho 199" d="M19.356,3.15,17.869,2,16.382,3.15,14.9,2,13.409,3.15,11.922,2,10.435,3.15,8.948,2,7.461,3.15,5.974,2V12.737H3v2.3c0,1.273,1.328,2.3,2.974,2.3h11.9c1.646,0,2.974-1.028,2.974-2.3V2Zm-.5,11.887a.9.9,0,0,1-.991.767.9.9,0,0,1-.991-.767v-2.3H7.956V4.3h10.9Z" transform="translate(-3 -2)" fill="#fff"/>
  <rect id="Retângulo_394" data-name="Retângulo 394" width="6" height="2" transform="translate(5.973 3.49)" fill="#fff"/>
  <rect id="Retângulo_395" data-name="Retângulo 395" width="2" height="2" transform="translate(13.418 3.49)" fill="#fff"/>
  <rect id="Retângulo_396" data-name="Retângulo 396" width="6" height="2" transform="translate(5.973 6.784)" fill="#fff"/>
  <rect id="Retângulo_397" data-name="Retângulo 397" width="2" height="2" transform="translate(13.418 6.784)" fill="#fff" opacity="0.8"/>
</svg>
